<svg xmlns="http://www.w3.org/2000/svg" xmlns:xlink="http://www.w3.org/1999/xlink" xmlns:svgjs="http://svgjs.com/svgjs" version="1.1" width="40" height="40" x="0" y="0" viewBox="0 0 512 512" style="enable-background:new 0 0 512 512" xml:space="preserve" class=""><g transform="matrix(1,0,0,1,80,0)"><g xmlns="http://www.w3.org/2000/svg" clip-rule="evenodd" fill-rule="evenodd"><g><path d="m317.944 466.305c0 19.63-16.064 35.695-35.694 35.695h-212.536c-19.631 0-35.694-16.062-35.694-35.695v-420.611c-.001-19.632 16.062-35.694 35.694-35.694h212.536c19.632 0 35.694 16.064 35.694 35.694z" fill="#263f52" data-original="#6a676b" class=""/><path d="m297.944 466.305v-420.611c0-8.591-7.102-15.695-15.694-15.695h-212.536c-8.592 0-15.694 7.102-15.694 15.695v420.611c0 8.592 7.102 15.695 15.694 15.695h212.536c8.59 0 15.694-7.104 15.694-15.695z" fill="#00aae5" data-original="#92d2fe" class=""/><g fill="#6a676b"><ellipse cx="175.982" cy="441.912" rx="20.5" ry="20.5" transform="matrix(.987 -.16 .16 .987 -68.514 33.895)" fill="#263f52" data-original="#6a676b" class=""/><path d="m117.727 46.157h116.509c4.406 0 8.149-2.719 9.51-6.91l9.503-29.247h-154.535l9.503 29.247c1.361 4.191 5.104 6.91 9.51 6.91z" fill="#263f52" data-original="#6a676b" class=""/></g></g></g></g></svg>