<svg xmlns="http://www.w3.org/2000/svg" width="612" height="612" viewBox="0 0 512 512" fill="none">
<g clip-path="url(#clip0_70_26)">
<path d="M353.415 355.833C354.507 341.886 354.399 327.875 355.383 313.918C355.629 310.419 356.028 306.934 356.338 303.435C356.648 299.936 356.707 296.545 356.678 293.071C356.619 286.269 355.92 279.409 356.5 272.622C356.796 269.177 357.263 265.703 357.125 262.223C356.988 258.823 356.363 255.456 355.802 252.105C355.241 248.753 354.817 245.515 353.917 242.262C353.016 239.009 351.948 235.894 350.865 232.744C349.881 229.954 349.478 227.015 348.449 224.255C347.494 221.563 346.227 218.993 344.674 216.597C341.613 212.049 337.356 208.56 333.202 205.061C331.16 203.344 329.147 201.616 327.262 199.707C325.181 197.61 322.769 195.868 320.741 193.712C319.752 192.569 318.831 191.37 317.981 190.12C317.029 188.847 316.032 187.61 314.988 186.409C313.029 184.237 310.956 182.17 308.778 180.218C306.809 178.397 304.584 176.576 301.888 175.961C299.653 175.439 297.247 175.912 295.086 176.566C292.715 177.257 290.47 178.323 288.437 179.726C286.374 181.289 284.631 183.236 283.304 185.459C281.828 187.826 280.627 190.641 280.716 193.486C280.828 196.182 281.44 198.834 282.522 201.306C283.624 203.85 285.214 206.124 286.803 208.383L292.763 216.887C294.788 219.771 296.814 222.652 298.841 225.529C299.786 226.868 300.711 228.231 301.701 229.535C302.559 230.59 303.34 231.705 304.038 232.872C305.406 235.333 304.968 238.177 304.397 240.81C303.718 243.661 302.851 246.464 301.804 249.201C299.555 255.51 297.261 261.815 294.589 267.957C293.337 270.786 291.855 273.508 290.16 276.097C288.511 278.661 286.853 281.225 285.652 284.04C282.969 290.145 281.033 296.551 279.884 303.12C278.772 309.956 278.688 316.9 278.275 323.79C278.099 327.157 277.752 330.513 277.236 333.844C276.985 335.39 279.338 336.064 279.608 334.499C279.667 334.179 279.722 333.859 279.776 333.544C280.046 331.994 277.674 331.33 277.404 332.89C277.349 333.205 277.29 333.525 277.236 333.844L279.608 334.499C280.726 327.762 280.834 320.97 281.218 314.183C281.602 307.397 282.487 300.896 284.471 294.429C285.421 291.323 286.518 288.253 287.768 285.255C288.925 282.485 290.573 279.96 292.197 277.445C293.866 274.916 295.331 272.259 296.577 269.497C297.89 266.485 299.132 263.445 300.303 260.378C301.484 257.307 302.611 254.216 303.718 251.121C304.703 248.35 305.746 245.594 306.469 242.754C307.124 240.161 307.705 237.306 307.272 234.629C306.819 231.848 304.845 229.707 303.251 227.527C299.245 221.986 295.377 216.341 291.439 210.745C288.255 206.203 284.549 201.739 283.482 196.148C282.901 193.517 283.249 190.767 284.466 188.363C285.624 185.951 287.283 183.813 289.333 182.093C291.155 180.739 293.203 179.719 295.381 179.081C297.394 178.436 299.678 177.87 301.779 178.5C304.289 179.263 306.263 181.246 308.118 183.003C310.295 185.009 312.347 187.146 314.265 189.401C316.194 191.729 317.71 194.323 319.925 196.439C321.962 198.407 324.152 200.174 326.17 202.153C329.984 205.893 334.344 209.013 338.158 212.753C342.08 216.548 344.979 221.273 346.584 226.489C347.007 227.877 347.209 229.319 347.603 230.716C347.996 232.114 348.538 233.61 349.035 235.047C350.107 238.143 351.126 241.273 351.919 244.447C352.711 247.621 353.119 251.022 353.671 254.319C354.222 257.617 354.724 260.84 354.655 264.162C354.601 267.607 354.094 270.988 353.877 274.404C353.666 277.74 353.877 281.097 353.971 284.434C354.192 291.176 354.428 297.953 353.73 304.675C352.312 318.367 352.184 332.102 351.549 345.838C351.392 349.189 351.195 352.536 350.934 355.878C350.811 357.457 353.272 357.452 353.395 355.878L353.415 355.833Z" fill="#B9B9B9"/>
<path d="M138.118 246.317C137.769 260.589 136.268 274.891 137.316 289.183C137.447 291.003 137.623 292.821 137.842 294.635C138.059 296.432 138.492 298.263 138.576 300.049C138.728 303.287 137.134 306.353 137.439 309.597C137.97 315.207 141.425 319.823 146.032 322.884C148.443 324.423 151.064 325.606 153.812 326.398C157.053 327.401 160.372 328.131 163.734 328.583C167.464 329.075 171.249 329.302 174.999 329.568C178.749 329.833 182.519 330.02 186.284 330.188C201.186 330.852 216.108 330.97 231.01 331.576C234.745 331.728 238.495 331.836 242.211 332.191C245.705 332.525 249.17 333.086 252.615 333.731C256.06 334.376 259.529 335.109 262.994 335.774C264.766 336.113 266.542 336.448 268.324 336.728C269.239 336.871 270.174 336.851 271.094 336.905C272.015 336.96 272.906 337.014 273.806 337.048C275.627 337.147 277.453 337.036 279.249 336.718C280.804 336.418 280.145 334.046 278.595 334.346C276.831 334.638 275.038 334.719 273.255 334.587C271.461 334.567 269.669 334.437 267.891 334.199C264.446 333.618 261.06 332.919 257.649 332.23C254.239 331.541 250.759 330.872 247.29 330.365C243.82 329.858 240.257 329.563 236.713 329.381C222.048 328.647 207.357 328.51 192.682 327.993C185.3 327.732 177.917 327.368 170.535 326.792C167.016 326.581 163.513 326.147 160.048 325.493C156.948 324.92 153.916 324.024 151.002 322.82C146.44 320.803 142.114 317.333 140.505 312.451C140.073 311.224 139.85 309.933 139.845 308.632C139.88 307.052 140.338 305.507 140.633 303.966C141.013 302.338 141.109 300.657 140.918 298.996C140.658 297.224 140.382 295.462 140.18 293.686C138.61 279.645 139.831 265.55 140.397 251.494C140.47 249.767 140.525 248.049 140.569 246.322C140.608 244.737 138.148 244.737 138.108 246.322L138.118 246.317Z" fill="#B9B9B9"/>
<path d="M146.229 187.723C147.262 179.022 148.748 170.385 150.126 161.733C151.519 152.958 152.804 144.149 153.429 135.28C153.601 132.78 153.729 130.28 153.778 127.775C153.822 125.698 153.842 123.631 154.029 121.56C154.025 121.234 153.894 120.924 153.664 120.694C153.434 120.464 153.124 120.333 152.799 120.329C152.474 120.336 152.165 120.467 151.936 120.697C151.706 120.926 151.575 121.235 151.568 121.56C151.204 125.566 151.317 129.601 151.076 133.612C150.81 138.017 150.367 142.416 149.826 146.797C148.738 155.537 147.223 164.213 145.854 172.914C145.082 177.836 144.378 182.757 143.768 187.723C143.769 188.049 143.899 188.361 144.13 188.592C144.36 188.822 144.672 188.952 144.998 188.953C145.322 188.946 145.631 188.814 145.86 188.585C146.089 188.356 146.221 188.047 146.229 187.723Z" fill="#B9B9B9"/>
<path d="M330.584 202.856C331.076 188.683 331.8 174.519 332.553 160.36C333.306 146.201 334.074 132.185 334.718 118.095C335.363 104.005 335.87 89.846 336.077 75.7166C336.121 72.4635 336.17 69.2105 336.185 65.9575C336.245 63.2665 336.067 60.5756 335.653 57.9159C334.753 52.6057 331.938 47.2955 326.76 45.1202C323.808 43.8849 320.476 43.6438 317.341 43.0926C313.896 42.5168 310.451 41.941 307.006 41.4095C303.561 40.878 300.224 40.4252 296.819 39.9724C295.21 39.7805 293.591 39.677 291.971 39.6624C291.268 39.6847 290.564 39.66 289.865 39.5886C288.994 39.4557 288.132 39.2096 287.261 39.0669C283.944 38.5781 280.594 38.3494 277.241 38.3828C273.757 38.3828 270.307 38.2549 266.828 38.0678C259.754 37.6873 252.67 37.4117 245.577 37.2411C231.502 36.8916 217.417 36.931 203.341 37.2411C196.248 37.3953 189.156 37.6102 182.066 37.8858C178.936 38.0088 175.762 37.9793 172.661 38.4566C170.196 38.8406 167.804 39.5956 165.565 40.6959C161.102 42.8524 157.613 46.6083 155.791 51.2178C155.195 52.7632 155.171 54.338 155.062 55.9768C154.944 57.7157 154.838 59.453 154.743 61.1886C154.556 64.7173 154.413 68.241 154.295 71.7696C153.803 85.7907 153.739 99.8216 152.695 113.828C152.433 117.319 152.105 120.8 151.711 124.271C151.712 124.597 151.842 124.909 152.073 125.14C152.303 125.37 152.615 125.5 152.941 125.502C153.266 125.495 153.575 125.364 153.804 125.134C154.034 124.905 154.165 124.596 154.172 124.271C155.727 110.521 156.076 96.6818 156.431 82.8625C156.603 75.9725 156.79 69.1268 157.139 62.2664C157.228 60.5275 157.328 58.7902 157.439 57.0546C157.543 55.465 157.474 53.7474 158.02 52.2366C158.842 49.9991 160.148 47.9708 161.844 46.2964C165.191 42.9745 169.841 41.1142 174.497 40.6811C177.78 40.376 181.111 40.376 184.404 40.253C187.829 40.1316 191.258 40.02 194.69 39.9183C208.529 39.5147 222.377 39.3425 236.221 39.5246C243.111 39.6165 250.001 39.8002 256.891 40.0758C260.379 40.2136 263.866 40.3776 267.354 40.5679C270.765 40.7549 274.146 40.8288 277.561 40.8583C280.874 40.8125 284.184 41.0612 287.453 41.6014C288.201 41.7392 288.93 41.9804 289.707 42.0936C290.454 42.1511 291.203 42.1691 291.951 42.1477C293.512 42.1608 295.071 42.2577 296.622 42.4381C303.448 43.2895 310.234 44.4066 317.011 45.5484C319.964 46.0405 323.256 46.2521 326.032 47.5169C328.493 48.6243 330.269 50.6617 331.495 53.0142C333.877 57.6206 333.754 63.0784 333.67 68.1179C333.434 81.9766 333.178 95.8205 332.597 109.669C332.016 123.518 331.288 137.372 330.55 151.221C329.812 165.07 329.073 178.928 328.493 192.792C328.348 196.158 328.217 199.524 328.099 202.891C328.04 204.475 330.501 204.47 330.56 202.891L330.584 202.856Z" fill="#B9B9B9"/>
<path d="M266.05 502.57C266.444 488.972 264.662 475.423 261.995 462.116C260.656 455.442 259.091 448.828 257.467 442.209C255.907 435.84 254.061 429.497 252.856 423.05C252.364 420.422 251.926 417.759 250.981 415.244C249.976 412.554 248.453 410.088 246.497 407.985C243.018 404.245 238.279 401.72 235.247 397.552C234.484 396.424 233.8 395.245 233.2 394.023C232.491 392.711 231.749 391.417 230.975 390.14C229.42 387.566 227.757 385.061 226.054 382.576C222.643 377.566 219.105 372.635 216.063 367.394C214.54 364.811 213.191 362.13 212.028 359.367C211.505 358.052 210.812 356.811 209.966 355.676C209.079 354.602 208.268 353.467 207.539 352.28C206.847 350.893 206.269 349.451 205.812 347.969C205.28 346.458 204.662 344.979 203.962 343.54C203.227 342.153 202.57 340.727 201.993 339.268C201.501 337.88 201.147 336.438 200.556 335.08C200.306 334.505 199.975 333.97 199.572 333.49C199.183 333.114 198.901 332.642 198.755 332.122C198.469 332.614 198.184 333.106 197.893 333.633C198.258 333.529 198.08 333.633 198.012 333.564C198.129 333.694 198.212 333.851 198.253 334.022C198.789 335.498 201.166 334.863 200.625 333.367C200.084 331.871 198.942 330.768 197.244 331.261C196.933 331.354 196.669 331.563 196.509 331.846C196.348 332.128 196.303 332.461 196.383 332.776C196.643 334.051 197.657 334.745 198.213 335.842C198.858 337.122 199.134 338.579 199.621 339.922C200.694 342.91 202.372 345.621 203.445 348.613C203.943 350.119 204.52 351.597 205.172 353.043C205.841 354.268 206.633 355.422 207.535 356.488C208.403 357.556 209.12 358.738 209.665 360.002C210.227 361.375 210.837 362.733 211.496 364.067C216.846 374.894 224.917 384.057 230.724 394.609C231.398 395.834 231.984 397.109 232.762 398.266C233.491 399.339 234.314 400.345 235.222 401.273C237.097 403.076 239.068 404.777 241.128 406.366C243.097 408.005 245.065 409.742 246.542 411.878C248.061 414.183 249.129 416.755 249.691 419.457C250.321 422.233 250.72 425.058 251.399 427.824C252.201 431.091 253.023 434.349 253.86 437.617C255.494 444.163 257.103 450.718 258.54 457.303C261.419 470.507 263.589 483.923 263.703 497.466C263.703 499.154 263.702 500.847 263.648 502.535C263.604 504.12 266.065 504.12 266.109 502.535L266.05 502.57Z" fill="#B9B9B9"/>
<path d="M277.773 332.353C278.757 334.322 278.55 336.709 278.703 338.83C278.945 341.389 279.497 343.909 280.347 346.335C281.159 348.859 281.931 351.374 282.537 353.958C283.083 356.622 283.835 359.24 284.786 361.788C285.77 364.249 285.854 367.015 287.119 369.377C287.867 370.77 289.993 369.529 289.245 368.132C288.172 366.129 288.167 363.702 287.355 361.611C286.405 359.086 285.632 356.497 285.042 353.865C284.432 351.266 283.713 348.727 282.886 346.192C282.114 343.83 281.361 341.413 281.169 338.918C280.972 336.28 281.095 333.549 279.899 331.113C279.817 330.973 279.709 330.851 279.581 330.753C279.452 330.655 279.305 330.584 279.149 330.543C278.993 330.502 278.83 330.492 278.67 330.514C278.51 330.535 278.355 330.589 278.216 330.67C278.076 330.751 277.954 330.86 277.856 330.988C277.758 331.117 277.687 331.263 277.646 331.42C277.605 331.576 277.595 331.739 277.616 331.899C277.638 332.059 277.691 332.213 277.773 332.353Z" fill="#B9B9B9"/>
<path d="M304.447 177.969C303.997 179.852 302.825 181.484 301.184 182.511C299.555 183.54 297.449 184.534 297.247 186.709C297.104 188.363 297.778 190.154 298.265 191.714C298.785 193.633 299.563 195.472 300.579 197.182C301.838 199.15 303.369 200.942 304.708 202.856C305.837 204.584 307.133 206.198 308.576 207.674C309.924 209.084 311.695 210.017 313.62 210.332C315.805 210.603 317.818 209.697 319.6 208.516C321.076 207.532 322.356 206.419 322.725 204.579C322.967 203.422 323.073 202.241 323.04 201.06C322.986 199.628 322.607 198.24 322.434 196.818C322.426 196.494 322.293 196.186 322.064 195.957C321.836 195.728 321.528 195.596 321.204 195.587C320.879 195.59 320.567 195.72 320.337 195.951C320.107 196.181 319.976 196.492 319.974 196.818C320.116 197.989 320.387 199.141 320.52 200.312C320.621 201.366 320.591 202.429 320.431 203.476C320.431 203.353 320.397 203.693 320.387 203.742C320.358 203.9 320.328 204.052 320.289 204.205C320.249 204.357 320.21 204.48 320.166 204.618C320.166 204.657 320.067 204.859 320.136 204.712C320.205 204.564 320.082 204.805 320.067 204.835C319.998 204.948 319.934 205.061 319.856 205.169C320.008 204.958 319.762 205.273 319.713 205.322C319.526 205.51 319.329 205.687 319.122 205.853C317.705 206.926 316.017 207.974 314.201 207.91C312.789 207.861 311.45 207.015 310.357 205.981C309.092 204.71 307.956 203.315 306.966 201.818C305.731 200.056 304.368 198.373 303.143 196.616C302.511 195.74 301.972 194.802 301.533 193.816C301.238 193.127 301.041 192.383 300.82 191.67C300.598 190.956 300.328 190.11 300.111 189.317C300.003 188.924 299.904 188.525 299.821 188.122C299.781 187.939 299.747 187.752 299.717 187.565C299.717 187.541 299.688 187.319 299.717 187.506C299.717 187.408 299.717 187.309 299.693 187.211C299.679 187.047 299.679 186.883 299.693 186.719C299.663 187.034 299.742 186.63 299.781 186.547C299.956 186.253 300.193 186.001 300.475 185.808C301.238 185.218 302.139 184.824 302.936 184.258C304.859 182.903 306.233 180.904 306.809 178.623C307.178 177.083 304.806 176.428 304.437 177.969H304.447Z" fill="#B9B9B9"/>
<path d="M278.89 319.203C270.912 317.85 263.196 315.266 255.184 314.114C253.149 313.806 251.098 313.617 249.042 313.548C246.95 313.499 244.853 313.608 242.767 313.745C238.585 314.074 234.384 314.105 230.198 313.839C226.024 313.514 221.88 312.889 217.712 312.5C213.543 312.111 209.39 311.895 205.226 311.639C201.063 311.383 196.86 311.088 192.677 310.527C190.689 310.278 188.717 309.913 186.771 309.434C184.868 308.882 182.929 308.461 180.969 308.174C179.217 307.977 177.479 308.002 175.742 307.623C173.877 307.215 172.1 306.565 170.191 306.368C168.193 306.161 166.18 306.245 164.187 305.97C162.932 305.797 161.559 305.842 160.378 305.64C160.098 305.597 159.822 305.535 159.551 305.453L159.31 305.369C159.172 305.305 158.98 305.123 159.167 305.29C157.991 304.242 156.244 305.974 157.43 307.033C158.488 307.977 160.004 308.105 161.367 308.214C162.046 308.268 162.725 308.292 163.404 308.347L163.783 308.381C163.783 308.381 163.99 308.411 163.842 308.381C163.695 308.351 164.029 308.415 164.019 308.415C164.595 308.499 165.171 308.563 165.752 308.607C167.77 308.745 169.827 308.607 171.8 309.1C173.52 309.607 175.268 310.01 177.037 310.305C178.892 310.551 180.752 310.507 182.588 310.896C184.424 311.285 186.338 311.88 188.247 312.269C192.479 313.025 196.752 313.532 201.043 313.785C205.251 314.095 209.469 314.277 213.676 314.597C217.884 314.917 222.043 315.428 226.236 315.886C230.433 316.411 234.666 316.598 238.894 316.447C243.072 316.231 247.26 315.788 251.424 316.137C259.559 316.816 267.369 319.41 275.332 321.059C276.316 321.255 277.287 321.436 278.245 321.6C278.559 321.677 278.891 321.632 279.173 321.472C279.455 321.313 279.665 321.053 279.761 320.744C279.844 320.428 279.801 320.093 279.64 319.81C279.479 319.526 279.213 319.317 278.9 319.228L278.89 319.203Z" fill="#B9B9B9"/>
<path d="M320.505 190.804C321.259 188.659 321.755 186.432 321.982 184.17C322.164 181.635 322.08 179.061 322.164 176.517C322.331 171.477 322.754 166.482 322.622 161.433C322.558 158.947 322.356 156.467 322.38 153.977C322.405 151.487 322.592 148.918 322.705 146.383C322.8 143.949 322.768 141.511 322.612 139.08C322.534 136.666 322.729 134.25 323.192 131.88C323.601 129.365 323.975 126.855 324.137 124.311C324.3 121.766 324.305 119.232 324.285 116.687C324.265 114.143 324.196 111.589 324.285 109.044C324.419 106.555 324.687 104.074 325.087 101.613C325.451 99.1228 325.806 96.6326 325.934 94.1178C326.062 91.6029 326.278 89.0881 326.519 86.5733C327.011 81.6076 327.504 76.6271 327.317 71.6319C327.223 69.1035 326.913 66.5877 326.391 64.112C326.039 62.2841 325.362 60.5341 324.393 58.9445C322.617 56.2961 319.948 54.3747 316.873 53.5309C313.428 52.4876 309.821 52.4974 306.263 52.4187C301.174 52.3006 296.09 52.0693 291.006 51.7888C270.706 50.6568 250.361 48.703 230.035 50.0909C220.817 50.7159 211.58 51.0752 202.367 51.7937C193.154 52.5122 183.922 53.5949 175.004 56.0458C172.917 56.6199 170.855 57.2761 168.818 58.0143C167.341 58.5458 167.981 60.9229 169.472 60.3865C186.623 54.2101 205.182 54.1018 223.165 53.0043C227.875 52.7189 232.575 52.3301 237.294 52.1825C242.26 52.025 247.226 52.0397 252.191 52.1825C262.182 52.4236 272.157 53.0979 282.133 53.7229C287.222 54.0428 292.316 54.3479 297.39 54.5743C299.826 54.6825 302.267 54.7761 304.703 54.84C306.848 54.8991 308.999 54.8745 311.135 55.027C314.088 55.2387 317.164 55.8342 319.654 57.532C322.523 59.5006 323.626 62.7044 324.221 65.9821C325.097 70.8001 324.949 75.7412 324.57 80.6036C324.374 83.1037 324.113 85.5939 323.881 88.089C323.66 90.5005 323.552 92.9169 323.365 95.3284C322.991 100.25 321.844 105.038 321.77 109.965C321.696 114.891 321.967 119.955 321.598 124.941C321.416 127.46 320.993 129.941 320.614 132.431C320.191 134.808 320.042 137.225 320.171 139.636C320.491 144.557 319.93 149.395 319.905 154.297C319.905 156.684 320.082 159.066 320.146 161.448C320.215 163.938 320.215 166.428 320.102 168.918C319.989 171.408 319.782 173.785 319.698 176.222C319.61 178.781 319.674 181.355 319.521 183.909C319.322 186.039 318.854 188.136 318.128 190.149C317.636 191.66 320.018 192.305 320.5 190.804H320.505Z" fill="#B9B9B9"/>
<path d="M324.649 72.8868C325.56 67.9654 326.219 61.4544 321.45 58.221C318.891 56.4936 315.471 56.2524 312.513 55.7062C308.828 55.05 305.132 54.4446 301.425 53.8902C272.305 49.5074 242.804 48.1993 213.411 49.9875C206.091 50.437 198.791 51.0751 191.51 51.9019C186.338 52.4925 180.841 52.3645 175.816 53.8262C170.402 55.3961 166.815 59.3086 165.766 64.86C165.117 68.305 164.876 71.8877 164.477 75.3819L163.193 86.6421C161.464 101.82 159.734 116.997 158.005 132.175C156.312 147.047 154.511 161.91 153.138 176.812C151.75 191.877 151.12 206.97 150.579 222.089C150.043 237.045 149.482 252.016 147.867 266.898C146.666 277.972 145.899 289.251 151.681 299.276C153.131 301.747 154.823 304.069 156.731 306.206C157.779 307.402 159.511 305.654 158.473 304.468C154.856 300.339 152.016 295.61 150.599 290.285C149.265 285.231 149.216 279.95 149.565 274.768C150.013 268.075 150.928 261.421 151.425 254.733C151.967 247.523 152.326 240.298 152.621 233.079C153.222 218.452 153.552 203.811 154.59 189.204C155.574 174.834 157.248 160.517 158.876 146.201L163.862 102.425L166.323 80.6577L167.578 69.6485C167.937 66.4791 168.198 63.0932 170.107 60.411C173.016 56.3213 178.326 55.5487 182.967 55.1697C188.902 54.6776 194.803 53.9738 200.728 53.4325C229.133 50.8378 257.728 51.1461 286.07 54.3528C293.246 55.1664 300.393 56.1671 307.513 57.3548C310.849 57.9109 314.309 58.3391 317.577 59.225C320.343 59.9878 322.075 61.7152 322.631 64.545C323.123 67.0648 322.725 69.7518 322.262 72.2519C321.977 73.7972 324.349 74.4616 324.634 72.9065L324.649 72.8868Z" fill="#B9B9B9"/>
<path d="M267 53.8508C266.714 54.963 266.454 56.0802 266.07 57.1629C265.805 58.1126 265.286 58.9719 264.569 59.6482C264.332 59.8086 264.068 59.9268 263.791 59.9976C262.898 60.0838 262.001 60.1134 261.104 60.0862C259.303 60.1157 257.497 60.0862 255.69 60.1256C252.05 60.2533 248.42 60.5934 244.819 61.1443C243.087 61.3756 241.374 61.6365 239.642 61.9711C238.825 62.1286 238.013 62.3107 237.181 62.4633L236.728 62.5568C236.285 62.6306 236.925 62.5568 236.522 62.5863H236.167C236.103 62.5863 235.788 62.5371 236.074 62.5863C235.976 62.5716 235.881 62.5468 235.788 62.5125C236.152 62.6404 235.552 62.3255 235.828 62.5125C235.772 62.4689 235.719 62.4212 235.67 62.3697C235.621 62.3156 235.567 62.2615 235.518 62.2024C235.586 62.291 235.577 62.2762 235.488 62.1483C235.068 61.5211 234.737 60.8387 234.504 60.1207C233.903 58.3096 233.628 56.4345 232.865 54.6727C232.699 54.3927 232.429 54.1893 232.114 54.1064C231.799 54.0235 231.464 54.0678 231.182 54.2297C230.906 54.4002 230.707 54.6702 230.626 54.9836C230.544 55.297 230.587 55.6298 230.744 55.9129C231.438 57.532 231.62 59.3234 232.22 60.977C232.663 62.2418 233.303 63.8216 234.504 64.5647C235.522 65.2045 236.728 65.0273 237.84 64.7911C239.75 64.3875 241.65 64.0036 243.579 63.7133C247.355 63.1048 251.165 62.7317 254.987 62.5961C256.955 62.5469 258.924 62.5715 260.892 62.5469C262.418 62.5469 264.17 62.6995 265.553 61.9416C268.102 60.5439 268.737 57.0595 269.392 54.5004C269.785 52.9649 267.423 52.3104 267.019 53.8459L267 53.8508Z" fill="#B9B9B9"/>
<path d="M281.326 290.999C281.685 290.506 282.049 290.014 282.409 289.522C282.989 288.72 282.197 287.706 281.346 287.672C272.251 287.293 263.196 288.597 254.106 288.592C245.016 288.587 235.897 287.357 226.802 286.51C222.269 286.092 217.722 285.752 213.169 285.683C208.617 285.615 204.011 285.954 199.434 286.176C194.955 286.368 190.477 286.496 185.998 286.461C183.728 286.461 181.459 286.404 179.192 286.289C177.398 286.271 175.608 286.116 173.838 285.826C170.599 285.186 167.484 284.055 164.265 283.326C161.135 282.583 157.69 282.091 154.58 283.208C153.813 283.484 153.083 283.853 152.405 284.305C151.101 285.186 152.331 287.322 153.645 286.432C156.165 284.724 159.29 284.827 162.169 285.359C165.442 285.959 168.567 287.066 171.805 287.849C175.55 288.759 179.458 288.759 183.292 288.833C187.775 288.927 192.258 288.833 196.737 288.69C201.215 288.548 205.718 288.198 210.212 288.115C214.705 288.031 219.297 288.307 223.819 288.681C232.89 289.434 241.92 290.679 251.025 290.969C260.13 291.259 269.042 290.019 278.093 290.029C279.185 290.029 280.278 290.054 281.37 290.103L280.307 288.248C279.948 288.74 279.589 289.232 279.225 289.724C279.061 290.006 279.016 290.341 279.099 290.657C279.182 290.972 279.386 291.242 279.667 291.407C279.951 291.564 280.283 291.607 280.597 291.525C280.91 291.444 281.18 291.244 281.351 290.969L281.326 290.999Z" fill="#B9B9B9"/>
<path d="M350.811 356.32C353.076 363.423 356.028 370.288 359.626 376.818C363.164 383.427 367.111 389.811 370.945 396.243C374.779 402.675 378.534 409.107 381.703 415.869C384.872 422.631 387.348 429.576 390.138 436.441C392.929 443.306 396.044 450.221 400.291 456.343C400.806 457.091 401.339 457.826 401.891 458.548C402.062 458.822 402.332 459.021 402.644 459.103C402.957 459.185 403.29 459.145 403.574 458.991C403.855 458.826 404.059 458.555 404.141 458.24C404.223 457.924 404.177 457.589 404.012 457.308C399.582 451.436 396.27 444.797 393.436 438.026C390.557 431.136 388.057 424.123 385.069 417.306C382.082 410.49 378.411 403.96 374.611 397.542C370.812 391.125 366.885 384.84 363.292 378.349C359.699 371.857 356.402 365.263 354.025 358.269C353.73 357.41 353.449 356.544 353.183 355.671C352.721 354.16 350.344 354.805 350.811 356.32Z" fill="#B9B9B9"/>
<path d="M133.374 162.009C131.647 162.336 129.889 162.473 128.133 162.417C126.656 162.417 125.057 162.417 123.61 162.875C121.99 163.447 120.613 164.555 119.707 166.015C118.46 168.023 117.45 170.17 116.7 172.412C115.072 177.045 113.95 181.84 113.354 186.714C113.014 189.253 113.048 191.773 114.033 194.175C115.027 196.379 116.178 198.509 117.478 200.548C119.84 204.569 122.399 208.55 125.815 211.784C129.255 215.114 133.491 217.508 138.118 218.738C140.453 219.395 142.92 219.433 145.274 218.846C147.173 218.283 148.903 217.259 150.308 215.864C151.737 214.437 152.854 212.729 153.587 210.849C154.321 208.968 154.656 206.955 154.57 204.938C154.369 200.366 152.292 196.079 149.359 192.634C146.332 189.086 142.336 186.458 138.251 184.268C137.267 183.737 136.259 183.223 135.229 182.728C134.945 182.572 134.612 182.531 134.299 182.614C133.986 182.696 133.717 182.895 133.546 183.171C133.385 183.453 133.342 183.788 133.425 184.102C133.507 184.417 133.71 184.687 133.989 184.854C141.371 188.471 149.354 193.333 151.617 201.818C152.122 203.571 152.246 205.411 151.981 207.215C151.716 209.02 151.069 210.747 150.082 212.281C149.157 213.704 147.905 214.885 146.43 215.726C144.718 216.63 142.772 216.99 140.849 216.759C138.698 216.494 136.608 215.865 134.668 214.899C132.721 213.998 130.892 212.862 129.22 211.518C125.869 208.796 123.314 205.322 121.031 201.675C119.869 199.81 118.772 197.9 117.684 195.986C116.557 194.017 115.632 192.005 115.608 189.672C115.583 187.339 116.07 185.1 116.498 182.865C116.926 180.631 117.424 178.397 118.058 176.207C118.657 174.089 119.424 172.021 120.352 170.026C120.793 169.047 121.306 168.103 121.887 167.201C122.249 166.661 122.7 166.187 123.221 165.798C123.694 165.455 124.237 165.221 124.811 165.114C125.396 164.976 125.996 164.907 126.597 164.907C128.152 164.853 129.712 164.937 131.267 164.809C132.199 164.733 133.125 164.595 134.038 164.395C135.584 164.061 134.929 161.689 133.384 162.023L133.374 162.009Z" fill="#B9B9B9"/>
<path d="M117.256 203.24C112.827 206.4 111.843 212.468 113.467 217.419C114.493 220.315 116.004 223.016 117.935 225.406C119.801 227.867 121.789 230.199 123.792 232.532C127.773 237.173 132.06 241.622 137.144 245.067C139.511 246.671 142.355 248.34 145.333 248.069C146.83 247.958 148.227 247.276 149.235 246.165C150.172 245.04 150.862 243.733 151.263 242.326C153.391 235.609 152.885 228.333 149.846 221.976C149.679 221.696 149.41 221.492 149.095 221.41C148.78 221.327 148.445 221.371 148.163 221.533C147.886 221.704 147.686 221.974 147.603 222.288C147.521 222.603 147.563 222.937 147.72 223.221C150.081 228.242 150.718 233.903 149.531 239.324C149.068 241.406 148.394 244.604 146.086 245.416C143.778 246.229 141.086 244.698 139.196 243.448C134.486 240.411 130.495 236.405 126.804 232.222C124.978 230.145 123.206 228.019 121.459 225.878C119.655 223.78 118.09 221.487 116.794 219.043C115.555 216.686 115.028 214.021 115.278 211.37C115.539 209.067 116.587 206.719 118.516 205.346C118.791 205.176 118.991 204.906 119.072 204.593C119.154 204.279 119.111 203.946 118.954 203.663C118.788 203.383 118.518 203.18 118.203 203.097C117.888 203.014 117.553 203.058 117.271 203.22L117.256 203.24Z" fill="#B9B9B9"/>
<path d="M150.83 125.334C143.94 126.043 137.05 125.595 130.16 126.023C126.725 126.195 123.316 126.709 119.983 127.559C116.823 128.415 113.531 129.631 110.962 131.712C105.957 135.773 106.104 143.288 109.121 148.494C110.73 151.28 113.058 153.514 115.647 155.384C118.303 157.31 121.134 158.982 124.102 160.38C131.019 163.715 138.527 165.651 146.194 166.074C147.774 166.162 147.774 163.697 146.194 163.613C139.818 163.274 133.55 161.826 127.67 159.336C124.706 158.074 121.854 156.566 119.141 154.828C116.637 153.318 114.402 151.402 112.527 149.159C109.382 145.187 107.827 138.465 111.68 134.395C113.678 132.278 116.656 131.146 119.382 130.3C122.469 129.382 125.648 128.806 128.861 128.582C136.169 127.997 143.527 128.553 150.825 127.8C151.149 127.791 151.457 127.659 151.685 127.43C151.914 127.201 152.047 126.893 152.055 126.57C152.054 126.244 151.924 125.931 151.694 125.701C151.463 125.47 151.151 125.34 150.825 125.339L150.83 125.334Z" fill="#B9B9B9"/>
<path d="M181.574 248.3C179.606 248.212 177.583 248.374 175.787 249.285C174.999 249.674 174.303 250.227 173.744 250.905C173.186 251.584 172.778 252.374 172.548 253.222C172.341 254.044 172.356 254.907 172.593 255.721C172.83 256.535 173.28 257.271 173.897 257.853C175.091 258.855 176.551 259.49 178.1 259.679C179.954 259.917 181.821 260.046 183.69 260.068L190.438 260.363L203.809 260.929L230.68 262.1L257.423 263.266L284.289 264.433L287.601 264.58C287.816 264.581 288.028 264.525 288.214 264.418C288.401 264.311 288.556 264.156 288.664 263.97C290.386 261.071 288.364 257.538 285.578 256.258C283.898 255.575 282.106 255.203 280.293 255.161C278.285 255.028 276.277 254.925 274.264 254.807L249.957 253.374L201.092 250.495L173.592 248.876C173.322 248.876 173.059 248.964 172.845 249.128C172.63 249.291 172.476 249.521 172.405 249.782C172.054 251.849 171.708 253.914 171.367 255.978C171.28 256.292 171.322 256.629 171.483 256.912C171.644 257.196 171.911 257.404 172.226 257.491C172.54 257.578 172.877 257.536 173.16 257.375C173.444 257.214 173.652 256.947 173.739 256.632C173.926 256.166 174.211 255.745 174.574 255.398C174.938 255.051 175.371 254.785 175.846 254.62L174.335 253.758C174.756 254.976 175.485 256.065 176.451 256.918C176.684 257.143 176.995 257.269 177.32 257.269C177.644 257.269 177.955 257.143 178.188 256.918L181.407 253.64L179.31 252.769C179.31 253.67 179.355 254.57 179.379 255.471C179.385 255.712 179.461 255.945 179.598 256.144C179.734 256.342 179.925 256.497 180.147 256.589C180.369 256.681 180.614 256.707 180.85 256.663C181.087 256.619 181.306 256.508 181.481 256.342L184.694 253.074L182.642 252.528L183.626 257.016C183.848 258.001 185.423 258.261 185.875 257.307C186.518 255.915 187.497 254.706 188.725 253.788L187.042 253.345L188.725 257.061C189.079 257.843 190.108 257.764 190.654 257.312L194.842 253.832L192.746 252.961L193.238 256.819C193.246 257.112 193.358 257.393 193.554 257.611C193.75 257.828 194.018 257.969 194.308 258.008C194.598 258.047 194.893 257.982 195.14 257.824C195.387 257.665 195.569 257.425 195.654 257.144C196.057 256.209 196.72 255.41 197.564 254.841L195.876 254.398C196.424 255.579 196.968 256.76 197.51 257.941C197.918 258.827 199.183 258.655 199.636 257.941C200.497 256.577 201.646 255.416 203.002 254.541L201.319 254.098C201.89 255.302 202.462 256.504 203.036 257.705C203.391 258.458 204.429 258.453 204.966 257.956L208.337 254.851L206.407 254.605L207.884 257.38C208.021 257.614 208.231 257.797 208.482 257.899C208.733 258.001 209.01 258.018 209.272 257.946C211.143 257.309 212.77 256.105 213.927 254.501H211.826C212.446 255.806 213.061 257.105 213.681 258.404C214.09 259.26 215.364 259.142 215.807 258.404C216.535 257.15 217.651 256.167 218.987 255.604L217.471 254.743C217.771 255.835 218.076 256.928 218.376 258.02C218.436 258.226 218.548 258.413 218.702 258.562C218.855 258.712 219.044 258.819 219.252 258.873C219.459 258.928 219.677 258.928 219.884 258.873C220.091 258.819 220.28 258.711 220.433 258.562L222.269 256.563L220.335 256.312L221.472 258.414C221.568 258.575 221.699 258.713 221.856 258.816C222.013 258.919 222.192 258.985 222.378 259.009C222.564 259.034 222.754 259.015 222.932 258.955C223.11 258.896 223.272 258.796 223.406 258.665L225.507 256.066L223.44 255.515L224.425 258.985C224.493 259.214 224.627 259.419 224.809 259.574C224.991 259.729 225.214 259.828 225.451 259.859C225.688 259.89 225.93 259.852 226.146 259.75C226.362 259.647 226.543 259.484 226.669 259.28L228.219 256.677L225.97 256.381C226.639 258.507 230.07 259.034 231.034 256.824H228.908L230.134 259.123C230.808 260.392 232.678 259.497 232.383 258.178C232.383 258.232 232.324 258.448 232.333 258.478C232.265 258.335 232.56 258.478 232.54 258.478C232.924 258.749 233.231 259.115 233.431 259.541C234.272 260.88 236.384 259.644 235.557 258.301C234.843 257.164 233.864 255.948 232.388 255.978C232.033 255.972 231.681 256.045 231.358 256.193C231.035 256.341 230.749 256.558 230.522 256.831C230.294 257.103 230.13 257.422 230.041 257.766C229.953 258.11 229.942 258.469 230.011 258.817L232.255 257.873L231.034 255.574C230.631 254.821 229.282 254.723 228.908 255.574C228.888 255.631 228.862 255.686 228.829 255.737C228.783 255.809 228.783 255.809 228.829 255.737C228.829 255.614 228.962 255.806 228.805 255.737C228.903 255.707 228.913 255.707 228.829 255.737L228.657 255.786C228.834 255.761 228.657 255.786 228.564 255.786C228.342 255.786 228.839 255.855 228.465 255.786C228.263 255.742 228.465 255.81 228.372 255.756C228.278 255.702 228.485 255.791 228.298 255.707C228.421 255.766 228.298 255.609 228.327 255.737C228.258 255.508 228.124 255.304 227.941 255.149C227.759 254.994 227.535 254.895 227.298 254.864C227.061 254.833 226.82 254.871 226.603 254.973C226.387 255.075 226.205 255.238 226.078 255.441C225.562 256.312 225.045 257.179 224.533 258.05L226.782 258.34L225.798 254.895C225.562 254.078 224.346 253.601 223.741 254.349L221.669 256.933L223.603 257.184L222.466 255.082C222.37 254.921 222.239 254.783 222.083 254.68C221.926 254.577 221.748 254.511 221.563 254.487C221.377 254.463 221.188 254.481 221.01 254.541C220.832 254.6 220.67 254.7 220.537 254.831L218.696 256.829L220.753 257.376C220.452 256.283 220.15 255.19 219.848 254.098C219.76 253.784 219.553 253.518 219.27 253.356C218.987 253.195 218.651 253.152 218.337 253.237C216.395 254.001 214.761 255.385 213.686 257.174H215.812L213.952 253.276C213.514 252.356 212.323 252.607 211.831 253.276C211.024 254.346 209.915 255.15 208.647 255.584L210.035 256.15L208.558 253.369C208.462 253.209 208.33 253.073 208.173 252.971C208.016 252.869 207.839 252.803 207.653 252.78C207.468 252.756 207.279 252.775 207.102 252.834C206.924 252.894 206.763 252.993 206.629 253.123L203.258 256.224L205.187 256.475L203.46 252.863C203.292 252.584 203.023 252.381 202.708 252.298C202.394 252.215 202.059 252.259 201.776 252.42C200.064 253.521 198.612 254.984 197.524 256.706H199.65C199.109 255.525 198.564 254.344 198.016 253.163C197.851 252.882 197.581 252.678 197.266 252.595C196.951 252.512 196.616 252.557 196.333 252.72C194.966 253.646 193.908 254.961 193.297 256.495L195.713 256.824L195.221 252.966C195.213 252.726 195.136 252.494 194.999 252.297C194.862 252.1 194.672 251.946 194.451 251.855C194.229 251.763 193.986 251.737 193.75 251.779C193.514 251.822 193.295 251.931 193.12 252.095L188.932 255.574L190.861 255.825C190.305 254.585 189.744 253.365 189.183 252.11C189.017 251.829 188.748 251.624 188.432 251.541C188.117 251.458 187.782 251.503 187.499 251.667C185.905 252.798 184.622 254.313 183.769 256.071L186.018 256.367C185.69 254.871 185.362 253.376 185.034 251.883C184.975 251.677 184.863 251.49 184.71 251.34C184.557 251.19 184.367 251.082 184.16 251.027C183.953 250.972 183.735 250.972 183.528 251.026C183.32 251.08 183.13 251.187 182.977 251.337L179.758 254.605L181.86 255.476C181.86 254.575 181.81 253.675 181.791 252.774C181.784 252.533 181.708 252.3 181.572 252.101C181.436 251.903 181.245 251.748 181.023 251.656C180.8 251.564 180.556 251.538 180.319 251.582C180.083 251.626 179.864 251.737 179.689 251.903L176.471 255.185H178.208C177.545 254.632 177.036 253.917 176.731 253.109C176.639 252.798 176.429 252.535 176.146 252.375C175.864 252.215 175.53 252.171 175.216 252.252C174.339 252.547 173.54 253.035 172.878 253.681C172.216 254.327 171.708 255.114 171.392 255.983L173.764 256.637C174.092 254.57 174.438 252.505 174.802 250.441L173.616 251.342L221.004 254.132L268.398 256.923C272.709 257.179 277.064 257.292 281.365 257.71C282.96 257.868 284.761 258.202 285.903 259.442C286.735 260.328 287.197 261.667 286.562 262.735L287.625 262.125L261.985 261.007L236.344 259.89L210.581 258.768L184.94 257.651C183.055 257.567 181.151 257.567 179.271 257.361C178.08 257.233 176.682 256.947 175.762 256.194C175.32 255.828 175.023 255.316 174.926 254.75C174.828 254.184 174.936 253.602 175.23 253.109C175.998 251.696 177.479 251.052 179.015 250.83C179.872 250.728 180.737 250.705 181.599 250.761C183.178 250.835 183.178 248.374 181.599 248.3H181.574Z" fill="#B9B9B9"/>
<path d="M178.36 255.471C181.21 255.875 183.882 256.987 186.486 258.173C186.769 258.328 187.101 258.369 187.414 258.287C187.727 258.206 187.997 258.008 188.169 257.735C188.329 257.452 188.373 257.118 188.29 256.803C188.207 256.489 188.005 256.219 187.726 256.052C185.787 254.885 183.479 254.393 181.259 254.132C179.113 253.876 176.761 253.857 174.694 254.565C173.754 254.89 173.409 256.288 174.404 256.815C177.356 258.389 180.801 258.842 184.143 259.029C187.485 259.216 190.821 259.064 194.163 259.133C195.615 259.133 195.753 257.164 194.488 256.716C193.996 256.529 193.464 256.337 192.943 256.165C192.834 256.967 192.726 257.774 192.613 258.581C198.715 258.768 204.823 258.818 210.925 258.926C212.515 258.955 212.505 256.534 210.925 256.465C209.503 256.406 208.076 256.411 206.649 256.367C205.221 256.322 204.956 258.483 206.324 258.783C211.687 259.921 217.179 260.337 222.653 260.018C222.92 260.011 223.177 259.918 223.386 259.753C223.596 259.588 223.747 259.36 223.816 259.102C223.886 258.845 223.871 258.572 223.773 258.324C223.675 258.076 223.5 257.866 223.273 257.725C219.779 255.712 215.704 255.368 211.954 253.985L211.629 256.401C218.814 256.19 225.955 257.267 233.136 257.415C234.72 257.449 234.72 254.994 233.136 254.954L231.457 254.93C231.571 255.732 231.679 256.539 231.787 257.346C233.136 257.108 234.526 257.341 235.724 258.006L236.02 255.756C235.124 256.106 234.346 256.706 233.451 257.036C232.555 257.366 232.117 258.793 233.155 259.285C233.982 259.65 234.867 259.866 235.769 259.925C235.66 259.123 235.547 258.316 235.439 257.508C234.88 257.665 234.365 257.952 233.938 258.345C233.303 258.916 233.569 260.274 234.484 260.402C236.098 260.634 237.885 260.698 239.376 259.91C241.182 258.975 241.207 257.021 240.395 255.387L239.952 257.07C240.83 256.461 241.844 256.074 242.905 255.943L241.674 254.713C241.615 256.086 242.368 257.139 242.57 258.444C242.713 259.379 244.046 259.595 244.627 258.985C244.973 258.644 245.348 258.334 245.749 258.06L244.273 257.868C244.499 258.099 244.273 257.942 244.312 257.789C244.352 257.636 244.312 257.986 244.312 257.996C244.292 258.251 244.292 258.508 244.312 258.763C244.322 259.087 244.455 259.394 244.683 259.622C244.912 259.851 245.219 259.984 245.542 259.994C245.868 259.992 246.181 259.862 246.411 259.632C246.642 259.402 246.772 259.089 246.773 258.763C246.729 258.38 246.773 258.006 246.773 257.627C246.715 257.052 246.449 256.518 246.025 256.126C245.833 255.937 245.585 255.817 245.319 255.782C245.052 255.748 244.782 255.801 244.548 255.934C243.974 256.326 243.433 256.763 242.929 257.243L244.986 257.789C244.824 256.721 244.13 255.82 244.179 254.713C244.179 254.387 244.05 254.074 243.819 253.843C243.588 253.612 243.275 253.483 242.949 253.483C241.454 253.622 240.017 254.129 238.766 254.959C238.491 255.131 238.293 255.4 238.211 255.713C238.128 256.026 238.168 256.358 238.323 256.642C238.42 256.853 238.497 257.072 238.554 257.297C238.554 257.13 238.623 257.74 238.554 257.371C238.554 257.41 238.5 257.769 238.554 257.459C238.554 257.459 238.387 257.838 238.529 257.533C238.529 257.568 238.259 257.779 238.485 257.607C238.399 257.668 238.308 257.724 238.215 257.774C238.037 257.878 238.313 257.774 238.042 257.853C237.789 257.935 237.531 257.999 237.27 258.045C237.075 258.071 236.88 258.086 236.684 258.089C236.413 258.089 236.148 258.089 235.877 258.089C235.744 258.089 235.611 258.089 235.483 258.065C235.439 258.065 234.957 258.006 235.173 258.035L235.714 260.092C235.832 259.988 235.974 259.917 236.128 259.886C237.54 259.497 237.112 257.607 235.803 257.469C235.333 257.447 234.87 257.344 234.435 257.164L234.14 259.413C235.05 259.078 235.813 258.483 236.704 258.133C237.594 257.784 237.978 256.46 236.999 255.884C235.222 254.917 233.164 254.597 231.177 254.979C229.774 255.195 230.163 257.371 231.502 257.395L233.18 257.42V254.959C226 254.812 218.859 253.734 211.673 253.945C211.38 253.953 211.099 254.064 210.88 254.26C210.662 254.455 210.52 254.723 210.48 255.013C210.44 255.304 210.506 255.599 210.664 255.846C210.822 256.093 211.063 256.276 211.344 256.362C214.867 257.666 218.77 257.956 222.062 259.856L222.683 257.563C217.43 257.881 212.158 257.495 207.008 256.416C206.895 257.223 206.786 258.025 206.678 258.832C208.105 258.877 209.533 258.872 210.955 258.931V256.47C204.852 256.362 198.745 256.313 192.642 256.126C191.21 256.081 191.038 258.094 192.317 258.542C192.839 258.714 193.351 258.906 193.868 259.093L194.193 256.677C190.979 256.613 187.765 256.751 184.556 256.593C181.559 256.445 178.365 256.101 175.673 254.693L175.378 256.942C177.199 256.322 179.192 256.362 181.111 256.573C183.008 256.723 184.853 257.269 186.525 258.178L187.765 256.057C184.98 254.782 182.11 253.532 179.049 253.104C178.735 253.029 178.405 253.077 178.124 253.237C177.844 253.397 177.634 253.657 177.539 253.965C177.454 254.28 177.497 254.616 177.658 254.9C177.819 255.184 178.086 255.392 178.4 255.481L178.36 255.471Z" fill="#B9B9B9"/>
<path d="M178.902 243.177C180.486 243.177 180.486 240.717 178.902 240.717C177.317 240.717 177.317 243.177 178.902 243.177Z" fill="#B9B9B9"/>
<path d="M187.44 243.325H187.932C188.103 243.335 188.274 243.298 188.425 243.217C188.576 243.169 188.711 243.082 188.818 242.966C188.937 242.858 189.026 242.72 189.074 242.567C189.155 242.416 189.193 242.246 189.183 242.075L189.138 241.745C189.08 241.54 188.97 241.354 188.818 241.204L188.572 241.012C188.385 240.901 188.17 240.843 187.952 240.845H187.46C187.289 240.834 187.119 240.872 186.968 240.953C186.817 241 186.681 241.087 186.574 241.204C186.455 241.312 186.367 241.449 186.318 241.602C186.237 241.753 186.2 241.924 186.21 242.095L186.254 242.424C186.313 242.629 186.423 242.816 186.574 242.966L186.82 243.158C187.008 243.269 187.222 243.327 187.44 243.325Z" fill="#B9B9B9"/>
<path d="M200.251 243.551H200.743C200.914 243.566 201.085 243.53 201.235 243.448C201.388 243.399 201.526 243.311 201.634 243.192C201.75 243.085 201.837 242.949 201.885 242.798C201.965 242.647 202.003 242.477 201.993 242.306L201.949 241.981C201.892 241.777 201.784 241.59 201.634 241.44L201.383 241.248C201.195 241.138 200.981 241.078 200.763 241.076H200.27C200.1 241.067 199.931 241.103 199.778 241.179C199.627 241.229 199.491 241.317 199.385 241.435C199.266 241.541 199.177 241.677 199.129 241.829C199.048 241.98 199.011 242.15 199.02 242.321L199.065 242.646C199.123 242.852 199.233 243.04 199.385 243.192L199.631 243.384C199.819 243.493 200.033 243.551 200.251 243.551Z" fill="#B9B9B9"/>
<path d="M214.946 244.757C216.531 244.757 216.531 242.296 214.946 242.296C213.361 242.296 213.361 244.757 214.946 244.757Z" fill="#B9B9B9"/>
<path d="M231.571 244.098C233.151 244.098 233.155 241.637 231.571 241.637C229.986 241.637 229.981 244.098 231.571 244.098Z" fill="#B9B9B9"/>
<path d="M244.829 243.295H244.337C244.013 243.31 243.705 243.437 243.466 243.655C243.349 243.765 243.261 243.902 243.21 244.053C243.131 244.205 243.095 244.375 243.106 244.545L243.151 244.875C243.207 245.08 243.316 245.266 243.466 245.417L243.717 245.609C243.904 245.72 244.119 245.778 244.337 245.776H244.829C245 245.787 245.171 245.749 245.321 245.668C245.473 245.619 245.61 245.532 245.72 245.417C245.836 245.307 245.924 245.17 245.976 245.018C246.052 244.866 246.088 244.696 246.079 244.526L246.035 244.196C245.978 243.991 245.87 243.805 245.72 243.655L245.469 243.463C245.281 243.352 245.067 243.294 244.849 243.295H244.829Z" fill="#B9B9B9"/>
<path d="M188.444 75.249L181.948 75.1162L178.636 75.0473C177.583 74.9611 176.525 74.9611 175.472 75.0473C173.326 75.3672 172.907 77.7983 172.405 79.5356C171.833 81.5237 171.368 83.5411 171.013 85.5791C170.6 87.9559 170.329 90.3552 170.201 92.7643C170.117 94.349 172.578 94.3441 172.661 92.7643C172.916 87.9129 173.801 83.1152 175.294 78.4922C175.373 78.2413 175.467 77.6802 175.698 77.508C175.929 77.3357 176.603 77.4391 176.918 77.444L180.723 77.5227L188.444 77.6802C190.029 77.7097 190.029 75.249 188.444 75.2195V75.249Z" fill="#B9B9B9"/>
<path d="M300.372 82.5131L306.533 82.6016C306.622 82.6016 307.754 82.6705 307.764 82.641C307.774 82.6115 307.626 82.5574 307.646 82.5032C307.665 82.4491 307.646 82.5032 307.646 82.6115C307.646 82.7739 307.646 82.9412 307.646 83.1036L307.587 86.3025C307.511 90.4825 307.439 94.6624 307.37 98.8423C307.324 101.264 307.281 103.682 307.242 106.096C307.213 107.681 309.673 107.681 309.703 106.096C309.782 101.503 309.862 96.9098 309.944 92.3165L310.062 85.4265C310.161 84.3247 310.161 83.2163 310.062 82.1144C309.98 81.595 309.723 81.1192 309.334 80.7656C308.945 80.4121 308.446 80.2022 307.921 80.1705C306.716 80.0376 305.461 80.1065 304.245 80.0917L300.377 80.0376C298.792 80.0376 298.792 82.4983 300.377 82.4983L300.372 82.5131Z" fill="#B9B9B9"/>
<path d="M164.256 195.199C164.18 199.296 164.103 203.398 164.024 207.502C164.024 208.486 163.941 209.471 163.97 210.455C163.947 210.94 164.083 211.419 164.359 211.818C164.635 212.217 165.034 212.515 165.496 212.665C166.444 212.884 167.408 213.022 168.38 213.078L171.416 213.472L178.469 214.382C178.795 214.381 179.107 214.251 179.337 214.02C179.568 213.79 179.698 213.478 179.699 213.152C179.69 212.828 179.558 212.52 179.329 212.292C179.1 212.063 178.792 211.93 178.469 211.922L171.175 210.977L167.774 210.534L166.79 210.411C166.751 210.411 166.15 210.283 166.141 210.293C166.48 210.46 166.579 210.568 166.431 210.622C166.377 210.622 166.372 210.588 166.431 210.455C166.465 210.157 166.465 209.857 166.431 209.559C166.523 204.769 166.613 199.981 166.702 195.194C166.736 193.609 164.275 193.609 164.241 195.194L164.256 195.199Z" fill="#B9B9B9"/>
<path d="M286.085 220.849L293.674 220.982C294 220.982 294.313 220.852 294.544 220.621C294.775 220.391 294.904 220.078 294.904 219.751C294.904 219.425 294.775 219.112 294.544 218.881C294.313 218.651 294 218.521 293.674 218.521L286.085 218.388C285.759 218.389 285.447 218.52 285.217 218.75C284.986 218.98 284.856 219.293 284.855 219.619C284.861 219.943 284.993 220.252 285.222 220.482C285.451 220.711 285.761 220.843 286.085 220.849Z" fill="#B9B9B9"/>
<path d="M130.382 15.1932V16.1431C130.37 16.3135 130.406 16.4838 130.485 16.6352C130.537 16.7869 130.624 16.9238 130.741 17.0338C130.981 17.2512 131.289 17.3782 131.612 17.3931L131.937 17.3488C132.142 17.2933 132.329 17.1847 132.478 17.0338L132.675 16.7828C132.784 16.5943 132.842 16.3805 132.842 16.1627V15.2129C132.851 15.0427 132.815 14.8731 132.739 14.7208C132.687 14.5695 132.599 14.4328 132.483 14.3221C132.378 14.2084 132.246 14.1222 132.099 14.0711C131.949 13.9892 131.778 13.9517 131.607 13.9629L131.282 14.0072C131.076 14.0635 130.888 14.172 130.736 14.3221L130.544 14.5731C130.435 14.7616 130.377 14.9755 130.377 15.1932H130.382Z" fill="#B9B9B9"/>
<path d="M130.396 15.9265L141.489 31.3305C141.661 31.6048 141.93 31.8034 142.243 31.8857C142.556 31.968 142.888 31.9279 143.172 31.7734C143.452 31.6054 143.654 31.3348 143.737 31.0195C143.82 30.7042 143.776 30.369 143.615 30.0854L132.522 14.6814C132.351 14.407 132.081 14.2087 131.768 14.1272C131.455 14.0457 131.123 14.0873 130.839 14.2434C130.559 14.4096 130.356 14.6793 130.273 14.9942C130.19 15.3091 130.234 15.644 130.396 15.9265Z" fill="#B9B9B9"/>
<path d="M120.81 37.0886C125.5 36.9541 130.153 37.9677 134.363 40.0414C135.775 40.7452 137.021 38.624 135.603 37.9153C131.016 35.6218 125.937 34.4848 120.81 34.6032C119.225 34.6426 119.22 37.1033 120.81 37.0639V37.0886Z" fill="#B9B9B9"/>
<path d="M162.7 7.23035L165.161 26.2663C165.171 26.5895 165.304 26.8968 165.532 27.1254C165.761 27.354 166.068 27.4868 166.391 27.4967C166.717 27.4954 167.03 27.3654 167.26 27.1349C167.491 26.9045 167.621 26.5923 167.622 26.2663L165.161 7.23035C165.15 6.90755 165.017 6.60098 164.789 6.37259C164.56 6.1442 164.254 6.01103 163.931 6C163.605 6.0013 163.293 6.13134 163.062 6.36179C162.832 6.59225 162.702 6.90444 162.7 7.23035Z" fill="#B9B9B9"/>
<path d="M262.516 506.015C273.014 504.794 283.511 503.554 293.974 502.078C304.437 500.601 314.787 498.78 325.053 496.408C334.619 494.241 344.033 491.455 353.238 488.066C361.961 484.858 370.407 480.944 378.494 476.363C386.547 471.784 394.104 466.382 401.044 460.246C401.901 459.488 402.747 458.717 403.584 457.933C404.74 456.845 402.998 455.108 401.841 456.19C395.167 462.412 387.849 467.904 380.01 472.574C372.148 477.262 363.905 481.279 355.369 484.582C346.469 488.018 337.353 490.866 328.079 493.106C317.981 495.567 307.749 497.471 297.468 499.036C287.187 500.601 276.798 501.851 266.414 503.062L262.516 503.554C262.193 503.563 261.885 503.695 261.656 503.924C261.427 504.153 261.295 504.461 261.286 504.784C261.289 505.11 261.419 505.421 261.649 505.652C261.88 505.882 262.191 506.012 262.516 506.015Z" fill="#B9B9B9"/>
<path d="M121.602 231.11C119.269 234.767 116.912 238.556 115.785 242.788C115.197 244.927 115.015 247.158 115.248 249.363C115.599 251.701 116.143 254.005 116.872 256.253C118.25 260.998 119.63 265.744 121.011 270.491C121.69 272.837 122.373 275.184 123.059 277.534C123.634 279.502 124.402 281.308 126.09 282.568C129.265 284.93 133.851 284.266 137.213 282.711C137.492 282.544 137.694 282.274 137.776 281.959C137.858 281.644 137.813 281.31 137.651 281.028C137.482 280.751 137.212 280.55 136.898 280.467C136.584 280.385 136.251 280.427 135.967 280.585C133.507 281.727 130.145 282.229 127.768 280.747C126.371 279.871 125.849 278.321 125.401 276.781C124.761 274.579 124.123 272.383 123.487 270.191L119.619 256.903C118.447 252.868 117.035 248.832 117.896 244.6C118.811 240.092 121.307 236.145 123.733 232.35C124.589 231.012 122.458 229.776 121.612 231.11H121.602Z" fill="#B9B9B9"/>
<path d="M211.12 140.782C210.455 140.731 209.354 137.203 207.818 130.199C206.105 122.01 204.658 114.495 203.478 107.651L202.225 124.003C202.118 125.399 202.069 127.786 202.078 131.163C202.03 134.837 201.966 137.205 201.885 138.269C201.862 138.568 201.658 138.82 201.275 139.025C200.894 139.196 200.471 139.264 200.006 139.228C199.308 139.175 198.979 138.882 199.02 138.35L199.23 136.912C199.378 135.854 199.465 135.158 199.491 134.826C199.625 133.065 199.74 130.265 199.833 126.428C199.931 122.524 200.012 120.156 200.076 119.326L200.565 112.944C200.644 111.914 200.811 110.389 201.066 108.369C201.334 106.618 201.517 105.094 201.616 103.798L201.639 103.499C201.767 101.837 202.196 101.034 202.927 101.09C203.359 101.123 203.852 101.896 204.404 103.41C205.318 105.887 206.385 110.281 207.607 116.593C208.296 120.256 209.072 124.962 209.935 130.712C209.912 130.576 210.09 131.743 210.469 134.213L210.5 134.466C210.747 131.242 211.002 128.353 211.264 125.799L212.028 117.132L213.159 102.375C213.355 101.554 213.919 101.18 214.85 101.251C215.747 101.32 216.146 102.002 216.047 103.298L216.024 103.598C215.794 103.981 215.657 104.455 215.614 105.02C215.459 107.048 215.175 110.102 214.762 114.182C214.346 118.296 214.06 121.383 213.902 123.443L212.737 138.649C212.697 139.181 212.509 139.668 212.174 140.11C211.87 140.588 211.518 140.812 211.12 140.782ZM225.832 142.56C224.935 142.492 224.143 142.13 223.458 141.476C222.773 140.822 222.204 139.959 221.751 138.888C220.924 137.019 220.398 134.505 220.172 131.345C220.005 129.16 219.947 126.648 219.997 123.81L220.15 121.164L220.356 118.472C220.389 117.605 220.452 116.557 220.547 115.327C220.699 113.333 220.917 111.578 221.201 110.062C221.456 108.477 221.909 106.923 222.561 105.402C223.197 104.08 224.035 103.175 225.075 102.686C225.694 102.466 226.302 102.379 226.901 102.425C228.662 102.56 230.005 103.365 230.928 104.839C231.938 106.488 232.552 108.29 232.77 110.246C233.124 112.613 233.253 114.863 233.156 116.995C233.108 119.365 233.004 121.597 232.844 123.691L232.626 126.532C232.583 127.098 232.418 128.155 232.132 129.704C231.905 130.924 231.759 131.965 231.693 132.83L231.677 133.029C231.407 133.944 231.223 135.033 231.126 136.296C231.055 137.227 230.782 138.176 230.306 139.142C229.831 140.109 229.201 140.913 228.417 141.555C227.624 142.297 226.763 142.632 225.832 142.56ZM226.142 139.826C226.807 139.877 227.419 139.305 227.978 138.111C228.461 137.045 228.845 135.737 229.131 134.188C229.453 132.608 229.757 130.826 230.042 128.842C230.175 127.983 230.293 126.872 230.398 125.509L230.699 120.919C230.77 119.119 230.743 116.86 230.617 114.143C230.526 111.829 230.183 109.764 229.587 107.946C229.318 107.09 228.952 106.41 228.489 105.906C228.026 105.403 227.512 105.129 226.947 105.086C226.117 105.023 225.452 105.624 224.954 106.889C224.351 108.214 223.904 109.684 223.613 111.3C223.279 113.046 223.034 114.715 222.879 116.308L222.703 117.95C222.634 118.412 222.569 119.043 222.508 119.84L222.492 120.04C222.322 122.266 222.345 125.026 222.56 128.319C222.754 132.78 223.294 135.981 224.182 137.921C224.757 139.135 225.411 139.77 226.142 139.826ZM257.173 150.477C256.608 150.434 255.928 150.148 255.133 149.619L255.137 149.569C254.27 149.101 253.695 148.322 253.41 147.23C253.244 146.348 253.106 145.318 252.995 144.14C252.923 143.332 252.876 142.86 252.853 142.725L250.809 142.568C249.136 141.27 247.957 139.642 247.272 137.684C246.967 136.858 246.738 135.921 246.584 134.873C246.431 133.825 246.359 132.8 246.368 131.797C246.348 131.194 246.394 130.161 246.506 128.699L246.918 124.618C247.156 122.831 247.309 121.489 247.377 120.592L247.45 118.993L247.599 117.048C247.751 115.054 247.94 113.464 248.165 112.278C248.491 110.631 248.956 109.146 249.559 107.821C250.2 106.433 251.074 105.497 252.181 105.013C252.769 104.757 253.395 104.655 254.06 104.706C254.957 104.774 255.774 105.021 256.511 105.445C257.247 105.869 257.874 106.419 258.39 107.093C259.206 108.226 259.805 110.01 260.187 112.446C260.42 114.637 260.485 116.849 260.381 119.08C260.36 119.781 260.289 120.929 260.167 122.524L259.961 125.216C259.869 125.978 259.791 126.775 259.728 127.605L259.556 129.849C259.327 132.84 258.949 135.151 258.423 136.783C257.93 138.416 256.985 140.066 255.587 141.73L255.71 142.743C255.81 144.054 255.948 145.085 256.125 145.834C256.366 147.055 256.735 147.686 257.234 147.724L257.433 147.739C258.032 147.785 258.494 147.854 258.822 147.946C259.307 148.15 259.529 148.535 259.485 149.1C259.406 150.13 258.636 150.589 257.173 150.477ZM252.718 141.21C252.984 140.796 253.449 140.614 254.114 140.665L254.11 140.715C255.426 139.679 256.179 137.931 256.367 135.472L257.394 122.061C257.557 119.934 257.644 118.152 257.653 116.715C257.663 114.844 257.497 113.076 257.157 111.412C256.988 110.563 256.741 109.859 256.416 109.299C256.124 108.742 255.727 108.26 255.223 107.854C254.686 107.445 254.102 107.216 253.47 107.168C252.872 107.122 252.307 107.948 251.776 109.646C250.91 112.22 250.166 116.476 249.545 122.413C249.3 124.734 249.151 126.244 249.097 126.942C248.988 128.371 248.945 130.022 248.969 131.896C248.979 133.936 249.261 135.93 249.814 137.878C250.075 138.834 250.45 139.615 250.939 140.221C251.43 140.794 252.022 141.14 252.714 141.26L252.718 141.21ZM275.282 145.445C274.651 145.397 274.071 144.901 273.541 143.958L273.552 143.809C273.588 142.039 273.439 140.056 273.106 137.857C272.773 135.659 272.241 132.994 271.512 129.862C270.956 127.513 270.499 125.405 270.141 123.539L268.636 143.181C268.595 143.713 268.465 144.104 268.245 144.355C268.061 144.575 267.703 144.664 267.172 144.624C266.773 144.593 266.466 144.453 266.251 144.202C266.039 143.918 265.948 143.577 265.978 143.178L266.009 142.779L267.231 128.13C267.629 123.814 268.035 118.948 268.45 113.53L268.92 107.398C268.95 107 269.054 106.74 269.23 106.62C269.409 106.466 269.764 106.41 270.296 106.451C271.127 106.514 271.879 106.739 272.551 107.125C273.226 107.478 273.791 107.955 274.247 108.559C275.188 109.801 275.746 111.248 275.92 112.899C276.002 113.574 276.01 114.344 275.944 115.208C275.906 115.706 275.814 116.251 275.668 116.841C275.556 117.435 275.477 117.813 275.431 117.977C275.339 118.304 275.151 118.791 274.868 119.438C274.584 120.085 274.401 120.505 274.32 120.7L273.614 122.05L273.017 123.308C272.958 124.507 273.042 126.034 273.267 127.89C273.526 129.749 273.828 131.477 274.174 133.075C274.422 134.197 274.881 136.071 275.549 138.696L276.658 143.194L276.651 143.294C276.608 143.859 276.521 144.337 276.391 144.728C276.25 145.252 275.881 145.491 275.282 145.445ZM270.213 121.288C270.714 120.858 271.328 120.253 272.057 119.473L273.133 115.243C273.179 115.079 273.213 114.848 273.236 114.549C273.31 113.585 273.212 112.458 272.944 111.167C272.79 110.553 272.562 110.034 272.26 109.61C271.994 109.155 271.697 108.898 271.367 108.84L270.885 113.817C270.615 116.036 270.433 117.761 270.338 118.991C270.249 120.154 270.207 120.92 270.213 121.288ZM209.044 190.819C208.114 190.748 207.266 190.466 206.501 189.973C205.77 189.482 205.15 188.849 204.641 188.075C204.196 187.339 203.815 186.424 203.497 185.33C203.182 184.202 202.97 183.049 202.86 181.871C202.611 179.879 202.542 177.283 202.654 174.082C202.679 173.315 202.763 172.001 202.906 170.14L203.146 166.999C203.248 166.104 203.336 165.175 203.41 164.211C203.56 162.25 203.795 160.714 204.114 159.602C204.052 159.095 204.042 158.576 204.083 158.045C204.236 156.05 205.107 154.496 206.697 153.381C208.286 152.265 210.228 151.796 212.521 151.971C213.385 152.038 214.165 152.331 214.861 152.853C215.556 153.374 215.877 153.984 215.824 154.681C215.799 155.014 215.645 155.27 215.364 155.449C215.083 155.628 214.743 155.702 214.344 155.671C214.012 155.646 213.65 155.568 213.259 155.438C212.901 155.31 212.68 155.143 212.595 154.936L211.947 154.886L211.955 154.786C210.725 154.692 209.674 154.879 208.803 155.347C208.171 155.733 207.651 156.412 207.243 157.384C207.082 157.739 206.946 158.197 206.836 158.757C206.727 159.317 206.654 159.83 206.618 160.295C206.565 160.558 206.507 161.089 206.446 161.886L206.412 163.639L206.332 165.338C206.294 165.836 206.183 166.413 205.999 167.067C205.77 167.886 205.642 168.461 205.616 168.793L205.525 169.99C205.425 171.286 205.339 173.068 205.266 175.335C205.154 177.232 205.225 179.143 205.479 181.068C205.643 182.853 206.093 184.392 206.83 185.685C207.531 187.009 208.563 187.723 209.925 187.828C210.49 187.871 211.211 187.625 212.088 187.091C213.031 186.561 213.685 186.311 214.051 186.339C214.516 186.374 214.979 186.66 215.44 187.197C215.345 188.427 214.807 189.338 213.826 189.932C212.916 190.464 211.856 190.767 210.647 190.842C209.977 190.857 209.443 190.85 209.044 190.819ZM225.446 192.677C224.549 192.609 223.757 192.247 223.072 191.593C222.386 190.939 221.817 190.076 221.364 189.005C220.538 187.136 220.012 184.622 219.786 181.462C219.619 179.276 219.561 176.765 219.611 173.927L219.763 171.281L219.97 168.589C220.003 167.722 220.066 166.674 220.16 165.444C220.313 163.45 220.531 161.695 220.814 160.179C221.07 158.594 221.523 157.04 222.174 155.519C222.81 154.197 223.649 153.292 224.689 152.803C225.308 152.583 225.916 152.496 226.514 152.542C228.276 152.677 229.618 153.481 230.542 154.956C231.552 156.605 232.166 158.407 232.384 160.363C232.738 162.73 232.866 164.98 232.77 167.112C232.722 169.482 232.618 171.714 232.458 173.808L232.24 176.649C232.197 177.214 232.032 178.272 231.746 179.821C231.519 181.04 231.372 182.082 231.306 182.946L231.291 183.146C231.02 184.061 230.837 185.15 230.74 186.413C230.669 187.344 230.395 188.292 229.92 189.259C229.445 190.226 228.815 191.03 228.03 191.672C227.238 192.413 226.377 192.749 225.446 192.677ZM225.756 189.943C226.42 189.994 227.032 189.422 227.592 188.228C228.075 187.162 228.459 185.854 228.745 184.305C229.067 182.725 229.37 180.943 229.656 178.959C229.789 178.1 229.907 176.989 230.012 175.626L230.313 171.036C230.384 169.236 230.356 166.977 230.23 164.26C230.14 161.946 229.797 159.88 229.2 158.063C228.932 157.207 228.566 156.527 228.103 156.023C227.64 155.52 227.126 155.246 226.561 155.203C225.73 155.139 225.066 155.74 224.568 157.006C223.965 158.331 223.518 159.801 223.227 161.417C222.893 163.163 222.648 164.832 222.492 166.425L222.316 168.066C222.248 168.529 222.183 169.159 222.121 169.957L222.106 170.156C221.936 172.383 221.958 175.143 222.174 178.436C222.367 182.897 222.908 186.098 223.795 188.038C224.371 189.252 225.024 189.887 225.756 189.943ZM239.278 192.433C238.614 192.382 238.044 192.188 237.568 191.851C237.126 191.516 236.925 191.083 236.965 190.551C237.753 189.876 238.267 187.959 238.509 184.802C238.654 182.908 238.716 180.137 238.694 176.492C238.627 173.01 238.669 170.272 238.822 168.278L239.132 165.543C239.226 164.748 239.313 163.835 239.392 162.805C239.463 161.875 239.387 160.682 239.164 159.227C238.88 157.701 238.761 156.639 238.806 156.041C238.896 154.877 240.22 154.394 242.779 154.59L243.527 154.647C245.321 154.785 246.841 155.453 248.087 156.651C249.079 157.663 249.873 159.078 250.47 160.896C250.877 162.13 251.181 163.825 251.384 165.98C251.441 167.857 251.429 169.327 251.347 170.39L251.225 171.986L251.045 174.329C250.969 174.457 250.925 174.587 250.915 174.72C250.895 174.986 250.896 175.187 250.919 175.322C250.942 175.458 250.946 175.625 250.931 175.824C250.849 176.888 250.585 178.155 250.138 179.625C249.727 181.064 249.164 182.526 248.449 184.009C246.673 187.55 244.796 190.014 242.818 191.4C241.655 192.18 240.475 192.525 239.278 192.433ZM240.547 189.622C241.835 188.951 242.999 187.937 244.039 186.58C245.082 185.188 245.92 183.631 246.554 181.908C247.7 178.72 248.401 175.464 248.656 172.14C248.793 170.345 248.777 168.372 248.608 166.219C248.4 164.13 247.761 162.209 246.692 160.456C246.188 159.615 245.521 158.945 244.69 158.447C243.861 157.916 242.899 157.608 241.802 157.524L241.798 157.574C241.569 160.565 241.422 165.1 241.358 171.18C241.296 177.226 241.146 181.795 240.91 184.886L240.547 189.622ZM258.452 194.102C257.821 194.054 257.279 193.929 256.826 193.727C256.274 193.518 256.027 193.031 256.086 192.266L258.304 163.301C258.347 162.736 258.313 161.881 258.2 160.736C258.046 159.687 257.995 158.831 258.046 158.166L258.057 158.017C258.693 157.129 259.155 156.563 259.441 156.317C259.906 156.353 260.526 156.334 261.301 156.259C262.009 156.18 262.629 156.16 263.161 156.201C263.692 156.242 264.195 156.448 264.668 156.818C265.144 157.155 265.365 157.54 265.332 157.972C265.255 158.969 264.453 159.409 262.924 159.292L262.226 159.239C262.029 159.19 261.798 159.156 261.532 159.135C261.233 159.112 261.049 159.115 260.98 159.143C260.893 160.273 260.855 161.641 260.866 163.246L260.859 164.65L260.748 167.4C260.7 168.031 260.576 168.991 260.377 170.28L260.064 173.064L260.773 172.968C261.453 172.819 262.009 172.762 262.441 172.795C262.807 172.823 263.128 172.998 263.404 173.32C263.683 173.609 263.808 173.936 263.78 174.301C263.75 174.7 263.589 175.056 263.297 175.368C263.042 175.649 262.731 175.775 262.365 175.747L261.771 175.652L261.123 175.602C260.624 175.564 260.267 175.654 260.049 175.871L258.869 191.276L261.673 191.34C263.567 191.485 264.481 191.99 264.415 192.854L264.4 193.053C264.17 193.437 263.779 193.741 263.227 193.966C262.677 194.158 262.15 194.268 261.647 194.297L259.998 194.221L258.452 194.102Z" fill="#B9B9B9"/>
</g>
<defs>
<clipPath id="clip0_70_26">
<rect width="297.214" height="500" fill="white" transform="translate(107 6)"/>
</clipPath>
</defs>
</svg>