<svg xmlns="http://www.w3.org/2000/svg" xmlns:xlink="http://www.w3.org/1999/xlink" xmlns:svgjs="http://svgjs.com/svgjs" version="1.1" width="512" height="512" x="0" y="0" viewBox="0 0 512 512" style="enable-background:new 0 0 512 512" xml:space="preserve" class="">
	<path xmlns="http://www.w3.org/2000/svg" style="" d="M30.905,0C13.907,0,0,13.907,0,30.905v450.19C0,498.093,13.907,512,30.905,512h143.7V0H30.905z" fill="#efefef" data-original="#efefef" class=""/>
	<path xmlns="http://www.w3.org/2000/svg" style="" d="M29.982,481.095V30.905C29.982,13.907,43.889,0,60.887,0H30.905C13.907,0,0,13.907,0,30.905v450.19  C0,498.093,13.907,512,30.905,512h29.982C43.889,512,29.982,498.093,29.982,481.095z" fill="#dddddd" data-original="#dddddd" class=""/>
	<path xmlns="http://www.w3.org/2000/svg" style="" d="M481.095,512H174.606c-16.998,0-30.905-13.907-30.905-30.905V30.905  C143.701,13.907,157.608,0,174.606,0h306.489C498.093,0,512,13.907,512,30.905v450.19C512,498.093,498.093,512,481.095,512z" fill="#2d4a60" data-original="#535454" class=""/>
	<path xmlns="http://www.w3.org/2000/svg" style="" d="M170.844,481.095V30.905C170.844,13.907,184.751,0,201.749,0h-27.143  c-16.998,0-30.905,13.907-30.905,30.905v450.19c0,16.998,13.907,30.905,30.905,30.905h27.143  C184.751,512,170.844,498.093,170.844,481.095z" fill="#263f52" data-original="#444443" class=""/>
	<path xmlns="http://www.w3.org/2000/svg" style="" d="M477.58,45.239H178.121c-4.019,0-7.277,3.258-7.277,7.277v385.299c0,4.019,3.258,7.277,7.277,7.277  H477.58c4.019,0,7.277-3.258,7.277-7.277V52.516C484.856,48.497,481.598,45.239,477.58,45.239z" fill="#00aae5" data-original="#a4d9f4" class=""/>
	<path xmlns="http://www.w3.org/2000/svg" style="" d="M201.749,437.815V52.516c0-4.019,3.258-7.277,7.277-7.277h-30.905c-4.019,0-7.277,3.258-7.277,7.277  v385.299c0,4.019,3.258,7.277,7.277,7.277h30.905C205.007,445.091,201.749,441.834,201.749,437.815z" fill="#00aae5" data-original="#7cc9e8" class=""/>
	<path style="" d="M327.85,501.007c-12.214,0-22.15-9.936-22.15-22.15s9.937-22.15,22.15-22.15   s22.15,9.936,22.15,22.15S340.064,501.007,327.85,501.007z M327.85,472.16c-3.692,0-6.697,3.004-6.697,6.697   c0,3.692,3.004,6.697,6.697,6.697c3.692,0,6.697-3.004,6.697-6.697C334.547,475.165,331.543,472.16,327.85,472.16z" fill="#263f52" data-original="#666666" class=""/>
	<circle style="" cx="44.41" cy="45.24" r="14.423" fill="#263f52" data-original="#666666" class=""/>
	<path xmlns="http://www.w3.org/2000/svg" style="" d="M44.406,45.239c-2.668-4.621-2.476-10.098,0.006-14.412c-2.454-0.003-4.94,0.606-7.218,1.921  c-6.899,3.983-9.262,12.804-5.279,19.703s12.804,9.262,19.703,5.279c2.278-1.315,4.049-3.164,5.273-5.291  C51.913,52.432,47.073,49.86,44.406,45.239z" fill="#2d4a60" data-original="#535454" class=""/>
	<path xmlns="http://www.w3.org/2000/svg" style="" d="M327.847,31.215c-0.505,0-1.01-0.051-1.504-0.155c-0.495-0.093-0.978-0.247-1.453-0.443  c-0.463-0.185-0.906-0.423-1.329-0.711c-0.423-0.278-0.814-0.598-1.175-0.958c-0.361-0.35-0.68-0.753-0.958-1.174  c-0.278-0.413-0.515-0.866-0.711-1.329c-0.196-0.464-0.34-0.959-0.443-1.443c-0.103-0.505-0.154-1.009-0.154-1.514  s0.052-1.01,0.154-1.515c0.103-0.484,0.247-0.978,0.443-1.442c0.196-0.464,0.433-0.917,0.711-1.329  c0.278-0.433,0.598-0.824,0.958-1.174c0.361-0.361,0.752-0.68,1.175-0.969c0.422-0.278,0.865-0.515,1.329-0.711  c0.474-0.185,0.958-0.339,1.453-0.433c2.504-0.515,5.182,0.31,6.975,2.113c0.35,0.35,0.68,0.741,0.958,1.174  c0.278,0.413,0.515,0.865,0.711,1.329c0.196,0.464,0.34,0.958,0.443,1.442c0.093,0.505,0.144,1.01,0.144,1.515  s-0.051,1.009-0.144,1.514c-0.103,0.484-0.247,0.979-0.443,1.443c-0.196,0.463-0.433,0.917-0.711,1.329  c-0.278,0.421-0.608,0.824-0.958,1.174C331.875,30.391,329.887,31.215,327.847,31.215z" fill="#263f52" data-original="#666666" class=""/>
	<path xmlns="http://www.w3.org/2000/svg" style="" d="M477.58,45.239H178.121c-4.019,0-7.277,3.258-7.277,7.277v20.718h314.013V52.516  C484.856,48.497,481.598,45.239,477.58,45.239z" fill="#009ae0" data-original="#70b5e8" class=""/>
	<path xmlns="http://www.w3.org/2000/svg" style="" d="M209.026,45.239h-30.905c-4.019,0-7.277,3.258-7.277,7.277v20.718h30.905V52.516  C201.749,48.497,205.007,45.239,209.026,45.239z" fill="#009ae0" data-original="#52a5d8" class=""/>
</svg>